<svg xmlns="http://www.w3.org/2000/svg" viewBox="0 0 1200 12" preserveAspectRatio="none">
  <path d="M0,12 L0,8 Q15,4 30,7 Q45,10 60,5 Q75,2 90,6 Q105,9 120,4 Q135,1 150,7 Q165,10 180,5 Q195,2 210,8 Q225,11 240,6 Q255,3 270,7 Q285,10 300,4 Q315,1 330,6 Q345,9 360,5 Q375,2 390,8 Q405,11 420,6 Q435,3 450,7 Q465,10 480,4 Q495,1 510,6 Q525,9 540,5 Q555,2 570,8 Q585,11 600,6 Q615,3 630,7 Q645,10 660,4 Q675,1 690,6 Q705,9 720,5 Q735,2 750,8 Q765,11 780,6 Q795,3 810,7 Q825,10 840,4 Q855,1 870,6 Q885,9 900,5 Q915,2 930,8 Q945,11 960,6 Q975,3 990,7 Q1005,10 1020,4 Q1035,1 1050,6 Q1065,9 1080,5 Q1095,2 1110,8 Q1125,11 1140,6 Q1155,3 1170,7 Q1185,10 1200,5 L1200,12 Z" fill="#f8edd8"/>
</svg>
