<svg xmlns="http://www.w3.org/2000/svg" viewBox="0 0 1200 12" preserveAspectRatio="none">
  <path d="M0,0 L0,4 Q15,8 30,5 Q45,2 60,7 Q75,10 90,6 Q105,3 120,8 Q135,11 150,5 Q165,2 180,7 Q195,10 210,4 Q225,1 240,6 Q255,9 270,5 Q285,2 300,8 Q315,11 330,6 Q345,3 360,7 Q375,10 390,4 Q405,1 420,6 Q435,9 450,5 Q465,2 480,8 Q495,11 510,6 Q525,3 540,7 Q555,10 570,4 Q585,1 600,6 Q615,9 630,5 Q645,2 660,8 Q675,11 690,6 Q705,3 720,7 Q735,10 750,4 Q765,1 780,6 Q795,9 810,5 Q825,2 840,8 Q855,11 870,6 Q885,3 900,7 Q915,10 930,4 Q945,1 960,6 Q975,9 990,5 Q1005,2 1020,8 Q1035,11 1050,6 Q1065,3 1080,7 Q1095,10 1110,4 Q1125,1 1140,6 Q1155,9 1170,5 Q1185,2 1200,7 L1200,0 Z" fill="#f8edd8"/>
</svg>
